<?xml version="1.0" encoding="UTF-8" standalone="no"?>
<!-- Created with Inkscape (http://www.inkscape.org/) -->

<svg
   xmlns:dc="http://purl.org/dc/elements/1.1/"
   xmlns:cc="http://creativecommons.org/ns#"
   xmlns:rdf="http://www.w3.org/1999/02/22-rdf-syntax-ns#"
   xmlns:svg="http://www.w3.org/2000/svg"
   xmlns="http://www.w3.org/2000/svg"
   xmlns:sodipodi="http://sodipodi.sourceforge.net/DTD/sodipodi-0.dtd"
   xmlns:inkscape="http://www.inkscape.org/namespaces/inkscape"
   width="199.3759mm"
   height="157.84348mm"
   viewBox="0 0 706.45004 559.2879"
   id="svg2"
   version="1.1"
   inkscape:version="0.91 r13725"
   sodipodi:docname="My Icon.svg"
   inkscape:export-filename="MyIconLOGO"
   inkscape:export-xdpi="25.479509"
   inkscape:export-ydpi="25.479509">
  <title
     id="title5619">AK&quot;K&quot;M Brand Logo</title>
  <defs
     id="defs4" />
  <sodipodi:namedview
     id="base"
     pagecolor="#ffffff"
     bordercolor="#666666"
     borderopacity="1.0"
     inkscape:pageopacity="0.0"
     inkscape:pageshadow="2"
     inkscape:zoom="0.86666599"
     inkscape:cx="336.09023"
     inkscape:cy="304.88788"
     inkscape:document-units="px"
     inkscape:current-layer="layer4"
     showgrid="true"
     inkscape:window-width="1366"
     inkscape:window-height="705"
     inkscape:window-x="-8"
     inkscape:window-y="-8"
     inkscape:window-maximized="1"
     showguides="false"
     fit-margin-top="0"
     fit-margin-left="0"
     fit-margin-right="0"
     fit-margin-bottom="0">
    <inkscape:grid
       type="xygrid"
       id="grid4136"
       originx="-18.823258"
       originy="-246.5372" />
  </sodipodi:namedview>
  <metadata
     id="metadata7">
    <rdf:RDF>
      <cc:Work
         rdf:about="">
        <dc:format>image/svg+xml</dc:format>
        <dc:type
           rdf:resource="http://purl.org/dc/dcmitype/StillImage" />
        <dc:title>AK&quot;K&quot;M Brand Logo</dc:title>
        <dc:date>04/29/2019</dc:date>
        <dc:creator>
          <cc:Agent>
            <dc:title>Angelica Kamene &quot;Kabesh&quot; Munyao</dc:title>
          </cc:Agent>
        </dc:creator>
        <dc:language>English</dc:language>
        <dc:subject>
          <rdf:Bag>
            <rdf:li>AK&quot;K&quot;M</rdf:li>
            <rdf:li>Angelica</rdf:li>
          </rdf:Bag>
        </dc:subject>
      </cc:Work>
    </rdf:RDF>
  </metadata>
  <g
     inkscape:label="A"
     inkscape:groupmode="layer"
     id="layer1"
     style="opacity:1"
     transform="translate(-18.823258,-246.53709)" />
  <g
     inkscape:groupmode="layer"
     id="layer3"
     inkscape:label="K"
     transform="translate(-18.823258,-246.53709)" />
  <g
     inkscape:groupmode="layer"
     id="layer2"
     inkscape:label="&quot;K&quot;"
     transform="translate(-18.823258,-246.53709)" />
  <g
     inkscape:groupmode="layer"
     id="layer4"
     inkscape:label="M"
     transform="translate(-18.823258,-246.53709)">
    <g
       id="g4199"
       transform="matrix(1.452938,0,0,1.4506362,-223.33846,-282.34839)">
      <path
         sodipodi:nodetypes="ccscscssscsssscssscsc"
         inkscape:connector-curvature="0"
         id="path4143"
         d="m 565.3564,735.81382 0,-337.94965 c 0,0 -2.66148,-19.64002 -30.81589,-30 -29.39339,-10.81589 -61.63179,11.84107 -61.63179,11.84107 0,0 -37.55232,18.15893 -95.52321,187.74036 -43.39789,126.95126 -112.25963,139.60268 -112.25963,139.60268 0,0 -88.08962,39.10594 -66.31786,-45.73249 26.54838,-103.45162 63.46505,-56.46465 65.29268,-42.82377 1.2557,9.37215 1.92633,36.06395 -22.44768,32.84501 -26.29662,-3.47286 -18.15893,19.1841 -18.15893,19.1841 0,0 1.86231,7.34304 23.26357,11.63179 10.1214,2.02829 60.76801,-15.74116 48.97483,-62.84501 -10.37609,-41.44374 -30.37609,-51.44374 -63.05429,-51.04641 -57.31894,0.69692 -101.05205,174.99163 -25.10464,181.02517 105.33516,8.36822 160.41856,-90.20928 160.41856,-90.20928 0,0 17.36428,-21.21322 82.90057,-189.94121 33.54136,-86.35472 83.27818,-70.71303 83.43854,-58.61505 1.02517,77.34304 -0.94562,97.33744 -0.12591,155.57044 1.15108,81.7726 0.9418,169.72224 0.9418,169.72224 0,0 4.28875,11.23447 15.52321,13.0543 0,0 14.68607,-1.00394 14.68607,-13.05429 z"
         style="opacity:1;fill:#22c9d3;fill-opacity:1;fill-rule:evenodd;stroke:#4e9aac;stroke-width:0.68880641px;stroke-linecap:butt;stroke-linejoin:miter;stroke-opacity:1" />
      <path
         sodipodi:nodetypes="ssszszsszszczsszsssszssczs"
         inkscape:connector-curvature="0"
         id="path4173-1"
         d="m 308.04616,648.48522 c 7.61089,-3.68883 16.85405,-37.53462 5.57359,-90.90832 -16.64242,-78.74399 -16.64242,-78.74399 -18.50742,-84.11949 -14.3304,-41.30432 -43.57042,-20.28927 -47.20904,-3.42051 -3.63863,16.86873 9.92217,55.76178 20.58755,33.49664 2.74808,-5.73689 15.82613,-6.33992 11.56305,11.99838 -4.26309,18.33832 -56.76071,11.01932 -47.01365,-45.01286 9.46983,-54.43846 61.80214,-45.76226 73.45995,-17.38847 13.19435,32.11362 14.11228,92.36681 21.48132,81.03982 7.36907,-11.32698 33.10747,-30.29072 42.40721,-108.20934 2.06388,-17.29227 10.86601,-22.36517 13.61926,-8.47391 2.75327,13.89126 3.18268,46.44392 -18.03479,83.47456 -11.94639,21.26374 -5.741,5.14371 14.35754,16.96404 20.09854,11.82037 22.66257,20.79155 36.15444,78.0819 4.5842,19.46589 8.19388,87.27042 44.82908,96.18162 27.5293,6.69625 42.34499,-24.62909 42.15547,-40.66933 -0.18956,-16.04025 -3.78123,-40.32345 -21.78713,-46.46282 -17.79074,-6.06603 -34.86414,19.82745 -23.77753,28.4876 14.77257,11.53941 4.6627,18.6599 -2.95738,17.01392 -19.62251,-4.23857 -31.74696,-44.5896 17.77227,-64.25507 24.62585,-9.77959 47.9034,30.02595 45.75849,63.90535 -2.14492,33.87939 -11.97504,48.47076 -36.82116,58.1994 -18.67838,7.31365 -56.55744,-3.8621 -65.36745,-39.59562 -17.62001,-71.46707 -25.93135,-193.06965 -87.57433,-108.69191 4.12477,17.14198 8.67664,53.21555 -4.74319,90.98249 -13.41984,37.7669 -30.48441,4.438 -15.92615,-2.61807 z"
         style="fill:#2dd517;fill-opacity:1;fill-rule:evenodd;stroke:#66ad5d;stroke-width:0.68880641px;stroke-linecap:butt;stroke-linejoin:miter;stroke-opacity:1" />
      <path
         sodipodi:nodetypes="ssszszsszszczsszsssszssczs"
         inkscape:connector-curvature="0"
         id="path4173"
         d="m 362.38838,659.18749 c 7.00489,-6.78335 2.72141,-39.95895 -33.28979,-79.87286 -53.12854,-58.8863 -53.12854,-58.8863 -57.58012,-62.55654 -34.20522,-28.20161 -58.13642,3.67024 -54.90607,19.74054 3.23036,16.0703 35.5145,42.59342 37.88436,18.56988 0.61062,-6.18997 15.14554,-12.97533 18.30941,4.64246 3.16388,17.61779 -59.42412,36.58458 -72.801,-15.67335 -12.9964,-50.77162 49.99569,-68.50661 75.54487,-50.00361 28.91666,20.94178 56.19928,71.66847 59.60363,58.51479 3.40433,-13.15365 24.26701,-41.60386 0.85109,-112.23321 -5.19663,-15.67461 2.55324,-24.20471 11.71904,-13.72895 9.16577,10.47578 23.83038,37.91349 15.95231,79.53749 -4.25543,23.78762 -4.25543,7.12189 23.63421,7.51883 27.88966,0.39696 34.69834,6.78537 74.91763,48.96452 13.66556,14.33146 47.28298,70.17955 92.61642,60.17372 34.06556,-7.51881 37.18513,-41.22706 29.98413,-54.75751 -7.20099,-13.53046 -21.84176,-32.42888 -44.88918,-29.00535 -22.77206,3.38262 -30.81209,33.56111 -14.49573,35.59729 21.74103,2.71313 13.40328,13.60935 4.06439,15.86678 -24.04868,5.81314 -55.3427,-22.63704 -7.87808,-63.09036 23.60406,-20.11738 67.28003,2.5197 79.60967,32.31892 12.32968,29.79925 7.56255,46.90555 -16.313,67.0853 -17.94868,15.17037 -65.6759,23.84981 -91.20847,-2.2691 -51.06509,-52.2378 -113.43475,-151.51584 -146.43093,-50.29338 12.13351,12.57838 32.99618,41.0286 34.26172,79.53748 1.26555,38.50889 -32.55955,18.39154 -19.16051,5.41622 z"
         style="fill:#2a51e8;fill-opacity:1;fill-rule:evenodd;stroke:#4057ae;stroke-width:0.68880635px;stroke-linecap:butt;stroke-linejoin:miter;stroke-opacity:1" />
      <path
         sodipodi:nodetypes="cscscsccszscsc"
         inkscape:connector-curvature="0"
         id="path4194"
         d="m 460,642.3622 c 0,0 -30,-10 0,-40 30,-30 51.4225,30.39733 51.4225,30.39733 0,0 13.68214,57.97088 -36.31786,67.97088 -50,10 -55.10464,-48.36821 -55.10464,-48.36821 0,0 -10,-60 -20,-100 -10,-40 55.29269,12.84501 55.29269,12.84501 L 438.97482,446.86023 c 0,0 139.14818,226.90352 200.58537,150.81589 C 660,572.3622 649.53896,541.14898 629.76948,531.75559 610,522.3622 584.15183,529.09182 578.7443,545.62577 c -8.7443,26.73643 21.84107,42.2384 21.84107,42.2384 0,0 45.05989,-0.8467 26.71519,-28.97483 C 610,532.3622 605.27145,560.73041 605.27145,560.73041"
         style="fill:none;fill-rule:evenodd;stroke:#000000;stroke-width:4.47724152;stroke-linecap:round;stroke-linejoin:round;stroke-miterlimit:4;stroke-dasharray:none;stroke-dashoffset:0;stroke-opacity:1" />
    </g>
  </g>
</svg>
